<?xml version="1.0" encoding="utf-8"?>
<!-- Generator: Adobe Illustrator 27.3.1, SVG Export Plug-In . SVG Version: 6.00 Build 0)  -->
<svg version="1.1" id="Ebene_1" xmlns="http://www.w3.org/2000/svg" xmlns:xlink="http://www.w3.org/1999/xlink" x="0px" y="0px"
	 viewBox="0 0 100 100" style="enable-background:new 0 0 100 100;" xml:space="preserve">
<style type="text/css">
	.st0{fill:#004A87;}
</style>
<path id="Icon_material-content-cut" class="st0" d="M38.2,28.2c1.2-2.6,1.8-5.4,1.8-8.2C40,9,31,0,20,0S0,9,0,20s9,20,20,20
	c2.8,0,5.6-0.6,8.2-1.8L40,50L28.2,61.8C25.6,60.6,22.8,60,20,60c-11,0-20,9-20,20s9,20,20,20s20-9,20-20c0-2.8-0.6-5.6-1.8-8.2
	L50,60l35,35h15v-5L38.2,28.2z M20,30c-5.5,0-10-4.5-10-10s4.5-10,10-10s10,4.5,10,10S25.5,30,20,30L20,30z M20,90
	c-5.5,0-10-4.5-10-10s4.5-10,10-10s10,4.5,10,10C30,85.5,25.5,90,20,90C20,90,20,90,20,90L20,90z M50,52.5c-1.4,0-2.5-1.1-2.5-2.5
	s1.1-2.5,2.5-2.5s2.5,1.1,2.5,2.5C52.5,51.4,51.4,52.5,50,52.5C50,52.5,50,52.5,50,52.5z M85,5L55,35l10,10l35-35V5H85z"/>
</svg>
